<?xml version="1.0" standalone="no"?><!DOCTYPE svg PUBLIC "-//W3C//DTD SVG 1.1//EN" "http://www.w3.org/Graphics/SVG/1.1/DTD/svg11.dtd"><svg t="1758633039531" class="icon" viewBox="0 0 1024 1024" version="1.1" xmlns="http://www.w3.org/2000/svg" p-id="4915" xmlns:xlink="http://www.w3.org/1999/xlink" width="200" height="200"><path d="M149.90336 585.58464L439.53152 875.2128l-15.0016 14.9504C343.04 970.6496 213.6064 1083.7504 77.49632 947.6096-55.9104 814.22336 50.04288 687.23712 130.08896 605.53216l4.87424-4.94592 14.94016-15.0016zM366.71488 874.8032l-216.3712-216.36096-7.94624 8.66304C52.10112 766.7712 37.09952 834.82624 113.69472 911.42144c76.04224 76.04224 146.04288 60.3648 242.87232-27.25888l6.10304-5.59104 4.0448-3.76832z" fill="#333333" p-id="4916"></path><path d="M439.53152 6.32832C726.8352 98.304 918.96832 288.48128 1015.87968 576.8192l2.90816 8.76544L439.53152 875.2128 149.90336 585.58464l281.6-563.57888 4.9152-9.69728 3.11296-5.98016z m32.78848 65.5872l-7.26016-2.70336L212.1728 575.4368l237.4656 237.4656 505.9584-252.96896-2.78528-7.3728C863.3344 318.42304 704.01024 159.08864 472.32 71.92576z" fill="#333333" p-id="4917"></path><path d="M755.48672 233.43104l36.1984 36.1984L312.832 748.50304l-36.20864-36.20864zM903.20896 375.73632l30.38208 41.216-551.28064 406.46656-30.38208-41.216zM608.16384 91.52512l41.216 30.38208-406.46656 551.28064-41.20576-30.38208z" fill="#333333" p-id="4918"></path></svg>